<mxfile host="Electron" agent="Mozilla/5.0 (Windows NT 10.0; Win64; x64) AppleWebKit/537.36 (KHTML, like Gecko) draw.io/24.4.0 Chrome/120.0.6099.109 Electron/28.1.0 Safari/537.36" modified="2024-11-20T00:37:39.855Z" etag="oKxz_ovGAsdQpdgSvad4" version="24.4.0" type="device">
  <diagram name="Page-1" id="ffVIXZYGaZ9YtQ2PmuBQ">
    <mxGraphModel dx="1257" dy="760" grid="1" gridSize="10" guides="1" tooltips="1" connect="1" arrows="1" fold="1" page="1" pageScale="1" pageWidth="850" pageHeight="1100" math="0" shadow="0">
      <root>
        <mxCell id="0" />
        <mxCell id="1" parent="0" />
        <mxCell id="s2Wf5fJSj2AJtUu0uB9K-4" style="edgeStyle=orthogonalEdgeStyle;rounded=0;orthogonalLoop=1;jettySize=auto;html=1;entryX=-0.006;entryY=0.27;entryDx=0;entryDy=0;entryPerimeter=0;exitX=0.579;exitY=1.002;exitDx=0;exitDy=0;exitPerimeter=0;" parent="1" source="STUI0dnbRy2QR_3KAWYy-2" target="STUI0dnbRy2QR_3KAWYy-3" edge="1">
          <mxGeometry relative="1" as="geometry">
            <mxPoint x="250" y="430" as="targetPoint" />
            <mxPoint x="110" y="250" as="sourcePoint" />
            <Array as="points">
              <mxPoint x="111" y="431" />
            </Array>
          </mxGeometry>
        </mxCell>
        <mxCell id="STUI0dnbRy2QR_3KAWYy-2" value="&lt;font size=&quot;1&quot; style=&quot;&quot; face=&quot;Tahoma&quot;&gt;&lt;b style=&quot;font-size: 16px;&quot;&gt;PRESIDENT&lt;/b&gt;&lt;/font&gt;" style="shape=cube;whiteSpace=wrap;html=1;boundedLbl=1;backgroundOutline=1;darkOpacity=0.05;darkOpacity2=0.1;" parent="1" vertex="1">
          <mxGeometry x="30" y="110" width="140" height="120" as="geometry" />
        </mxCell>
        <mxCell id="s2Wf5fJSj2AJtUu0uB9K-3" style="edgeStyle=orthogonalEdgeStyle;rounded=0;orthogonalLoop=1;jettySize=auto;html=1;exitX=0.39;exitY=0.004;exitDx=0;exitDy=0;entryX=1;entryY=0.667;entryDx=0;entryDy=0;entryPerimeter=0;exitPerimeter=0;" parent="1" source="STUI0dnbRy2QR_3KAWYy-3" target="STUI0dnbRy2QR_3KAWYy-2" edge="1">
          <mxGeometry relative="1" as="geometry">
            <mxPoint x="220" y="260" as="targetPoint" />
          </mxGeometry>
        </mxCell>
        <mxCell id="STUI0dnbRy2QR_3KAWYy-3" value="&lt;b&gt;&lt;font style=&quot;font-size: 20px;&quot;&gt;0&lt;/font&gt;&lt;/b&gt;" style="swimlane;childLayout=stackLayout;horizontal=1;startSize=50;horizontalStack=0;rounded=1;fontSize=14;fontStyle=0;strokeWidth=2;resizeParent=0;resizeLast=1;shadow=0;dashed=0;align=center;arcSize=4;whiteSpace=wrap;html=1;" parent="1" vertex="1">
          <mxGeometry x="280" y="390" width="220" height="150" as="geometry" />
        </mxCell>
        <mxCell id="STUI0dnbRy2QR_3KAWYy-4" value="&lt;div&gt;&lt;b&gt;&lt;font face=&quot;Verdana&quot; style=&quot;font-size: 20px;&quot;&gt;&lt;br&gt;&lt;/font&gt;&lt;/b&gt;&lt;/div&gt;&lt;b&gt;&lt;font face=&quot;Verdana&quot; style=&quot;font-size: 20px;&quot;&gt;Current Payroll&amp;nbsp;&lt;/font&gt;&lt;/b&gt;&lt;div&gt;&lt;b&gt;&lt;font face=&quot;Verdana&quot; style=&quot;font-size: 20px;&quot;&gt;System&lt;/font&gt;&lt;/b&gt;&lt;/div&gt;" style="align=center;strokeColor=none;fillColor=none;spacingLeft=4;fontSize=12;verticalAlign=top;resizable=0;rotatable=0;part=1;html=1;" parent="STUI0dnbRy2QR_3KAWYy-3" vertex="1">
          <mxGeometry y="50" width="220" height="100" as="geometry" />
        </mxCell>
        <mxCell id="STUI0dnbRy2QR_3KAWYy-24" style="edgeStyle=orthogonalEdgeStyle;rounded=0;orthogonalLoop=1;jettySize=auto;html=1;entryX=-0.005;entryY=0.806;entryDx=0;entryDy=0;entryPerimeter=0;" parent="1" source="STUI0dnbRy2QR_3KAWYy-6" target="STUI0dnbRy2QR_3KAWYy-4" edge="1">
          <mxGeometry relative="1" as="geometry">
            <mxPoint x="270" y="520" as="targetPoint" />
            <Array as="points">
              <mxPoint x="150" y="520" />
              <mxPoint x="240" y="520" />
            </Array>
          </mxGeometry>
        </mxCell>
        <mxCell id="STUI0dnbRy2QR_3KAWYy-6" value="&lt;font size=&quot;1&quot; face=&quot;Tahoma&quot;&gt;&lt;b style=&quot;font-size: 16px;&quot;&gt;EMPLOYEE&lt;/b&gt;&lt;/font&gt;" style="shape=cube;whiteSpace=wrap;html=1;boundedLbl=1;backgroundOutline=1;darkOpacity=0.05;darkOpacity2=0.1;" parent="1" vertex="1">
          <mxGeometry x="50" y="666" width="140" height="120" as="geometry" />
        </mxCell>
        <mxCell id="s2Wf5fJSj2AJtUu0uB9K-18" style="edgeStyle=orthogonalEdgeStyle;rounded=0;orthogonalLoop=1;jettySize=auto;html=1;exitX=0;exitY=0;exitDx=59.75;exitDy=0;exitPerimeter=0;entryX=0.907;entryY=0.997;entryDx=0;entryDy=0;entryPerimeter=0;" parent="1" source="STUI0dnbRy2QR_3KAWYy-7" target="STUI0dnbRy2QR_3KAWYy-4" edge="1">
          <mxGeometry relative="1" as="geometry">
            <mxPoint x="520" y="599.3162393162393" as="targetPoint" />
            <Array as="points">
              <mxPoint x="610" y="670" />
              <mxPoint x="480" y="670" />
            </Array>
          </mxGeometry>
        </mxCell>
        <mxCell id="STUI0dnbRy2QR_3KAWYy-7" value="&lt;font size=&quot;1&quot; style=&quot;&quot; face=&quot;Tahoma&quot;&gt;&lt;b style=&quot;font-size: 16px;&quot;&gt;CASHIER&lt;/b&gt;&lt;/font&gt;" style="shape=cube;whiteSpace=wrap;html=1;boundedLbl=1;backgroundOutline=1;darkOpacity=0.05;darkOpacity2=0.1;" parent="1" vertex="1">
          <mxGeometry x="550.5" y="720" width="139.5" height="120" as="geometry" />
        </mxCell>
        <mxCell id="STUI0dnbRy2QR_3KAWYy-10" value="&lt;font style=&quot;font-size: 10px;&quot;&gt;Schedule Details&lt;/font&gt;" style="text;html=1;align=center;verticalAlign=middle;whiteSpace=wrap;rounded=0;" parent="1" vertex="1">
          <mxGeometry x="142.5" y="380" width="120" height="20" as="geometry" />
        </mxCell>
        <mxCell id="STUI0dnbRy2QR_3KAWYy-12" value="&lt;font style=&quot;font-size: 10px;&quot; face=&quot;Tahoma&quot;&gt;Manual Monitoring Form Report&lt;/font&gt;" style="text;html=1;align=center;verticalAlign=middle;whiteSpace=wrap;rounded=0;" parent="1" vertex="1">
          <mxGeometry x="180" y="190" width="150" height="20" as="geometry" />
        </mxCell>
        <mxCell id="STUI0dnbRy2QR_3KAWYy-18" value="&lt;font style=&quot;font-size: 10px;&quot;&gt;&amp;nbsp;Cash Advance Verification&lt;/font&gt;" style="text;html=1;align=center;verticalAlign=middle;whiteSpace=wrap;rounded=0;" parent="1" vertex="1">
          <mxGeometry x="112.5" y="440" width="127.5" height="20" as="geometry" />
        </mxCell>
        <mxCell id="STUI0dnbRy2QR_3KAWYy-19" style="edgeStyle=orthogonalEdgeStyle;rounded=0;orthogonalLoop=1;jettySize=auto;html=1;entryX=0.55;entryY=-0.002;entryDx=0;entryDy=0;entryPerimeter=0;" parent="1" source="STUI0dnbRy2QR_3KAWYy-4" target="STUI0dnbRy2QR_3KAWYy-6" edge="1">
          <mxGeometry relative="1" as="geometry" />
        </mxCell>
        <mxCell id="STUI0dnbRy2QR_3KAWYy-20" value="&lt;font style=&quot;font-size: 10px;&quot; face=&quot;Tahoma&quot;&gt;Salary Recipient&lt;/font&gt;" style="text;html=1;align=center;verticalAlign=middle;whiteSpace=wrap;rounded=0;" parent="1" vertex="1">
          <mxGeometry x="180" y="490" width="90" height="20" as="geometry" />
        </mxCell>
        <mxCell id="STUI0dnbRy2QR_3KAWYy-25" value="&lt;font style=&quot;font-size: 10px;&quot; face=&quot;Tahoma&quot;&gt;Cash Advance&lt;/font&gt;" style="text;html=1;align=center;verticalAlign=middle;whiteSpace=wrap;rounded=0;" parent="1" vertex="1">
          <mxGeometry x="185" y="522" width="90" height="10" as="geometry" />
        </mxCell>
        <mxCell id="STUI0dnbRy2QR_3KAWYy-26" style="edgeStyle=orthogonalEdgeStyle;rounded=0;orthogonalLoop=1;jettySize=auto;html=1;entryX=0.317;entryY=1.003;entryDx=0;entryDy=0;entryPerimeter=0;exitX=1;exitY=0.617;exitDx=0;exitDy=0;exitPerimeter=0;" parent="1" source="STUI0dnbRy2QR_3KAWYy-6" target="STUI0dnbRy2QR_3KAWYy-4" edge="1">
          <mxGeometry relative="1" as="geometry">
            <mxPoint x="200" y="740" as="sourcePoint" />
            <mxPoint x="330" y="560" as="targetPoint" />
            <Array as="points">
              <mxPoint x="350" y="740" />
            </Array>
          </mxGeometry>
        </mxCell>
        <mxCell id="STUI0dnbRy2QR_3KAWYy-27" value="&lt;font style=&quot;font-size: 10px;&quot; face=&quot;Tahoma&quot;&gt;Manual Monitoring Form&lt;/font&gt;" style="text;html=1;align=center;verticalAlign=middle;whiteSpace=wrap;rounded=0;" parent="1" vertex="1">
          <mxGeometry x="232.5" y="721" width="110" height="10" as="geometry" />
        </mxCell>
        <mxCell id="STUI0dnbRy2QR_3KAWYy-30" style="edgeStyle=orthogonalEdgeStyle;rounded=0;orthogonalLoop=1;jettySize=auto;html=1;exitX=0.38;exitY=1.002;exitDx=0;exitDy=0;exitPerimeter=0;entryX=1;entryY=0.863;entryDx=0;entryDy=0;entryPerimeter=0;" parent="1" source="STUI0dnbRy2QR_3KAWYy-4" target="STUI0dnbRy2QR_3KAWYy-6" edge="1">
          <mxGeometry relative="1" as="geometry">
            <mxPoint x="364.02" y="548.96" as="sourcePoint" />
            <mxPoint x="200" y="770" as="targetPoint" />
            <Array as="points">
              <mxPoint x="364" y="770" />
            </Array>
          </mxGeometry>
        </mxCell>
        <mxCell id="STUI0dnbRy2QR_3KAWYy-31" value="&lt;font style=&quot;font-size: 10px;&quot; face=&quot;Tahoma&quot;&gt;Schedule Details&lt;/font&gt;" style="text;html=1;align=center;verticalAlign=middle;whiteSpace=wrap;rounded=0;" parent="1" vertex="1">
          <mxGeometry x="222.5" y="690" width="85" height="10" as="geometry" />
        </mxCell>
        <mxCell id="STUI0dnbRy2QR_3KAWYy-32" style="edgeStyle=orthogonalEdgeStyle;rounded=0;orthogonalLoop=1;jettySize=auto;html=1;exitX=0.59;exitY=0.995;exitDx=0;exitDy=0;exitPerimeter=0;entryX=0.001;entryY=0.751;entryDx=0;entryDy=0;entryPerimeter=0;" parent="1" source="STUI0dnbRy2QR_3KAWYy-4" target="STUI0dnbRy2QR_3KAWYy-7" edge="1">
          <mxGeometry relative="1" as="geometry">
            <mxPoint x="540" y="810" as="targetPoint" />
            <mxPoint x="410.0000000000002" y="550" as="sourcePoint" />
            <Array as="points">
              <mxPoint x="410" y="810" />
            </Array>
          </mxGeometry>
        </mxCell>
        <mxCell id="STUI0dnbRy2QR_3KAWYy-33" value="&lt;font style=&quot;font-size: 10px;&quot; face=&quot;Tahoma&quot;&gt;Employee Salary Details&lt;/font&gt;" style="text;html=1;align=center;verticalAlign=middle;whiteSpace=wrap;rounded=0;" parent="1" vertex="1">
          <mxGeometry x="421" y="806" width="135" height="21" as="geometry" />
        </mxCell>
        <mxCell id="STUI0dnbRy2QR_3KAWYy-34" style="edgeStyle=orthogonalEdgeStyle;rounded=0;orthogonalLoop=1;jettySize=auto;html=1;exitX=0.727;exitY=1.001;exitDx=0;exitDy=0;exitPerimeter=0;entryX=-0.003;entryY=0.498;entryDx=0;entryDy=0;entryPerimeter=0;" parent="1" source="STUI0dnbRy2QR_3KAWYy-4" target="STUI0dnbRy2QR_3KAWYy-7" edge="1">
          <mxGeometry relative="1" as="geometry">
            <mxPoint x="550" y="780" as="targetPoint" />
            <mxPoint x="440" y="550" as="sourcePoint" />
            <Array as="points">
              <mxPoint x="440" y="780" />
            </Array>
          </mxGeometry>
        </mxCell>
        <mxCell id="STUI0dnbRy2QR_3KAWYy-35" value="&lt;font style=&quot;font-size: 10px;&quot; face=&quot;Tahoma&quot;&gt;Cash Advance Details&lt;/font&gt;" style="text;html=1;align=center;verticalAlign=middle;whiteSpace=wrap;rounded=0;" parent="1" vertex="1">
          <mxGeometry x="435.75" y="760" width="105.5" height="20" as="geometry" />
        </mxCell>
        <mxCell id="STUI0dnbRy2QR_3KAWYy-37" value="&lt;font style=&quot;font-size: 10px;&quot;&gt;Employee Salary&lt;/font&gt;" style="text;html=1;align=center;verticalAlign=middle;whiteSpace=wrap;rounded=0;" parent="1" vertex="1">
          <mxGeometry x="490" y="646" width="121.5" height="20" as="geometry" />
        </mxCell>
        <mxCell id="s2Wf5fJSj2AJtUu0uB9K-1" style="edgeStyle=orthogonalEdgeStyle;rounded=0;orthogonalLoop=1;jettySize=auto;html=1;entryX=0.588;entryY=-0.009;entryDx=0;entryDy=0;entryPerimeter=0;exitX=0.999;exitY=0.338;exitDx=0;exitDy=0;exitPerimeter=0;" parent="1" source="STUI0dnbRy2QR_3KAWYy-2" target="STUI0dnbRy2QR_3KAWYy-3" edge="1">
          <mxGeometry relative="1" as="geometry" />
        </mxCell>
        <mxCell id="s2Wf5fJSj2AJtUu0uB9K-2" style="edgeStyle=orthogonalEdgeStyle;rounded=0;orthogonalLoop=1;jettySize=auto;html=1;exitX=0;exitY=0.25;exitDx=0;exitDy=0;entryX=0.41;entryY=1.005;entryDx=0;entryDy=0;entryPerimeter=0;endArrow=none;endFill=0;startArrow=classic;startFill=1;" parent="1" source="STUI0dnbRy2QR_3KAWYy-4" target="STUI0dnbRy2QR_3KAWYy-2" edge="1">
          <mxGeometry relative="1" as="geometry" />
        </mxCell>
        <mxCell id="s2Wf5fJSj2AJtUu0uB9K-5" value="&lt;font style=&quot;font-size: 10px;&quot;&gt;Employee Salary Report&lt;/font&gt;" style="text;html=1;align=center;verticalAlign=middle;whiteSpace=wrap;rounded=0;" parent="1" vertex="1">
          <mxGeometry x="120" y="410" width="150" height="21" as="geometry" />
        </mxCell>
        <mxCell id="s2Wf5fJSj2AJtUu0uB9K-6" value="&lt;font size=&quot;1&quot; style=&quot;&quot; face=&quot;Tahoma&quot;&gt;&lt;b style=&quot;font-size: 16px;&quot;&gt;Dean&lt;/b&gt;&lt;/font&gt;" style="shape=cube;whiteSpace=wrap;html=1;boundedLbl=1;backgroundOutline=1;darkOpacity=0.05;darkOpacity2=0.1;" parent="1" vertex="1">
          <mxGeometry x="550.5" y="90" width="150" height="110" as="geometry" />
        </mxCell>
        <mxCell id="s2Wf5fJSj2AJtUu0uB9K-22" style="edgeStyle=orthogonalEdgeStyle;rounded=0;orthogonalLoop=1;jettySize=auto;html=1;exitX=0.198;exitY=-0.005;exitDx=0;exitDy=0;exitPerimeter=0;entryX=1.002;entryY=0.103;entryDx=0;entryDy=0;entryPerimeter=0;" parent="1" source="s2Wf5fJSj2AJtUu0uB9K-8" target="STUI0dnbRy2QR_3KAWYy-4" edge="1">
          <mxGeometry relative="1" as="geometry">
            <mxPoint x="510" y="450" as="targetPoint" />
            <Array as="points">
              <mxPoint x="710" y="450" />
            </Array>
          </mxGeometry>
        </mxCell>
        <mxCell id="s2Wf5fJSj2AJtUu0uB9K-8" value="&lt;font size=&quot;1&quot; style=&quot;&quot; face=&quot;Tahoma&quot;&gt;&lt;b style=&quot;font-size: 16px;&quot;&gt;Principal&lt;/b&gt;&lt;/font&gt;" style="shape=cube;whiteSpace=wrap;html=1;boundedLbl=1;backgroundOutline=1;darkOpacity=0.05;darkOpacity2=0.1;" parent="1" vertex="1">
          <mxGeometry x="680" y="472" width="150" height="110" as="geometry" />
        </mxCell>
        <mxCell id="s2Wf5fJSj2AJtUu0uB9K-9" style="edgeStyle=orthogonalEdgeStyle;rounded=0;orthogonalLoop=1;jettySize=auto;html=1;entryX=0.003;entryY=0.107;entryDx=0;entryDy=0;entryPerimeter=0;" parent="1" source="STUI0dnbRy2QR_3KAWYy-2" target="STUI0dnbRy2QR_3KAWYy-3" edge="1">
          <mxGeometry relative="1" as="geometry">
            <Array as="points">
              <mxPoint x="140" y="406" />
            </Array>
          </mxGeometry>
        </mxCell>
        <mxCell id="s2Wf5fJSj2AJtUu0uB9K-10" value="&lt;span style=&quot;color: rgb(0, 0, 0); font-family: Tahoma; font-size: 10px; font-style: normal; font-variant-ligatures: normal; font-variant-caps: normal; font-weight: 400; letter-spacing: normal; orphans: 2; text-align: center; text-indent: 0px; text-transform: none; widows: 2; word-spacing: 0px; -webkit-text-stroke-width: 0px; white-space: normal; background-color: rgb(251, 251, 251); text-decoration-thickness: initial; text-decoration-style: initial; text-decoration-color: initial; display: inline !important; float: none;&quot;&gt;Manual Monitoring Form&lt;/span&gt;" style="text;whiteSpace=wrap;html=1;" parent="1" vertex="1">
          <mxGeometry x="180" y="121" width="170" height="30" as="geometry" />
        </mxCell>
        <mxCell id="s2Wf5fJSj2AJtUu0uB9K-11" style="edgeStyle=orthogonalEdgeStyle;rounded=0;orthogonalLoop=1;jettySize=auto;html=1;exitX=0.75;exitY=0;exitDx=0;exitDy=0;entryX=-0.003;entryY=0.18;entryDx=0;entryDy=0;entryPerimeter=0;" parent="1" source="STUI0dnbRy2QR_3KAWYy-3" target="s2Wf5fJSj2AJtUu0uB9K-6" edge="1">
          <mxGeometry relative="1" as="geometry">
            <mxPoint x="530" y="110" as="targetPoint" />
            <Array as="points">
              <mxPoint x="445" y="110" />
            </Array>
          </mxGeometry>
        </mxCell>
        <mxCell id="s2Wf5fJSj2AJtUu0uB9K-15" style="edgeStyle=orthogonalEdgeStyle;rounded=0;orthogonalLoop=1;jettySize=auto;html=1;entryX=0.936;entryY=-0.01;entryDx=0;entryDy=0;entryPerimeter=0;" parent="1" source="s2Wf5fJSj2AJtUu0uB9K-6" target="STUI0dnbRy2QR_3KAWYy-3" edge="1">
          <mxGeometry relative="1" as="geometry" />
        </mxCell>
        <mxCell id="s2Wf5fJSj2AJtUu0uB9K-16" style="edgeStyle=orthogonalEdgeStyle;rounded=0;orthogonalLoop=1;jettySize=auto;html=1;exitX=1;exitY=0;exitDx=0;exitDy=0;entryX=0.293;entryY=1.014;entryDx=0;entryDy=0;entryPerimeter=0;" parent="1" source="STUI0dnbRy2QR_3KAWYy-3" target="s2Wf5fJSj2AJtUu0uB9K-6" edge="1">
          <mxGeometry relative="1" as="geometry">
            <Array as="points">
              <mxPoint x="595" y="390" />
            </Array>
          </mxGeometry>
        </mxCell>
        <mxCell id="s2Wf5fJSj2AJtUu0uB9K-19" style="edgeStyle=orthogonalEdgeStyle;rounded=0;orthogonalLoop=1;jettySize=auto;html=1;exitX=1;exitY=0.966;exitDx=0;exitDy=0;entryX=0.342;entryY=0.997;entryDx=0;entryDy=0;entryPerimeter=0;exitPerimeter=0;" parent="1" source="STUI0dnbRy2QR_3KAWYy-4" target="s2Wf5fJSj2AJtUu0uB9K-8" edge="1">
          <mxGeometry relative="1" as="geometry">
            <mxPoint x="730" y="600" as="targetPoint" />
            <Array as="points">
              <mxPoint x="500" y="620" />
              <mxPoint x="731" y="620" />
            </Array>
          </mxGeometry>
        </mxCell>
        <mxCell id="s2Wf5fJSj2AJtUu0uB9K-20" style="edgeStyle=orthogonalEdgeStyle;rounded=0;orthogonalLoop=1;jettySize=auto;html=1;entryX=1.001;entryY=0.868;entryDx=0;entryDy=0;entryPerimeter=0;" parent="1" source="s2Wf5fJSj2AJtUu0uB9K-8" target="STUI0dnbRy2QR_3KAWYy-4" edge="1">
          <mxGeometry relative="1" as="geometry" />
        </mxCell>
        <mxCell id="s2Wf5fJSj2AJtUu0uB9K-21" style="edgeStyle=orthogonalEdgeStyle;rounded=0;orthogonalLoop=1;jettySize=auto;html=1;exitX=1;exitY=0.5;exitDx=0;exitDy=0;entryX=0.004;entryY=0.161;entryDx=0;entryDy=0;entryPerimeter=0;" parent="1" source="STUI0dnbRy2QR_3KAWYy-4" target="s2Wf5fJSj2AJtUu0uB9K-8" edge="1">
          <mxGeometry relative="1" as="geometry" />
        </mxCell>
        <mxCell id="s2Wf5fJSj2AJtUu0uB9K-23" style="edgeStyle=orthogonalEdgeStyle;rounded=0;orthogonalLoop=1;jettySize=auto;html=1;exitX=1;exitY=0.25;exitDx=0;exitDy=0;entryX=0.725;entryY=0.998;entryDx=0;entryDy=0;entryPerimeter=0;endArrow=none;endFill=0;startArrow=classic;startFill=1;" parent="1" source="STUI0dnbRy2QR_3KAWYy-3" target="s2Wf5fJSj2AJtUu0uB9K-6" edge="1">
          <mxGeometry relative="1" as="geometry" />
        </mxCell>
        <mxCell id="s2Wf5fJSj2AJtUu0uB9K-24" style="edgeStyle=orthogonalEdgeStyle;rounded=0;orthogonalLoop=1;jettySize=auto;html=1;exitX=0.18;exitY=1.003;exitDx=0;exitDy=0;entryX=0.997;entryY=0.322;entryDx=0;entryDy=0;entryPerimeter=0;exitPerimeter=0;" parent="1" source="STUI0dnbRy2QR_3KAWYy-4" target="STUI0dnbRy2QR_3KAWYy-6" edge="1">
          <mxGeometry relative="1" as="geometry" />
        </mxCell>
        <mxCell id="s2Wf5fJSj2AJtUu0uB9K-25" value="&lt;span style=&quot;color: rgb(0, 0, 0); font-family: Tahoma; font-size: 10px; font-style: normal; font-variant-ligatures: normal; font-variant-caps: normal; font-weight: 400; letter-spacing: normal; orphans: 2; text-align: center; text-indent: 0px; text-transform: none; widows: 2; word-spacing: 0px; -webkit-text-stroke-width: 0px; white-space: normal; background-color: rgb(251, 251, 251); text-decoration-thickness: initial; text-decoration-style: initial; text-decoration-color: initial; display: inline !important; float: none;&quot;&gt;Manual Monitoring Form Details&lt;/span&gt;" style="text;whiteSpace=wrap;html=1;" parent="1" vertex="1">
          <mxGeometry x="396.5" y="89" width="146.5" height="18" as="geometry" />
        </mxCell>
        <mxCell id="s2Wf5fJSj2AJtUu0uB9K-26" value="&lt;span style=&quot;color: rgb(0, 0, 0); font-family: Tahoma; font-size: 10px; font-style: normal; font-variant-ligatures: normal; font-variant-caps: normal; font-weight: 400; letter-spacing: normal; orphans: 2; text-align: center; text-indent: 0px; text-transform: none; widows: 2; word-spacing: 0px; -webkit-text-stroke-width: 0px; white-space: normal; background-color: rgb(251, 251, 251); text-decoration-thickness: initial; text-decoration-style: initial; text-decoration-color: initial; display: inline !important; float: none;&quot;&gt;Manual Monitoring Form Distribution&lt;/span&gt;" style="text;whiteSpace=wrap;html=1;" parent="1" vertex="1">
          <mxGeometry x="490" y="151" width="50" height="70" as="geometry" />
        </mxCell>
        <mxCell id="s2Wf5fJSj2AJtUu0uB9K-27" value="&lt;span style=&quot;color: rgb(0, 0, 0); font-family: Tahoma; font-size: 10px; font-style: normal; font-variant-ligatures: normal; font-variant-caps: normal; font-weight: 400; letter-spacing: normal; orphans: 2; text-align: center; text-indent: 0px; text-transform: none; widows: 2; word-spacing: 0px; -webkit-text-stroke-width: 0px; white-space: normal; background-color: rgb(251, 251, 251); text-decoration-thickness: initial; text-decoration-style: initial; text-decoration-color: initial; display: inline !important; float: none;&quot;&gt;Manual Monitoring Form Distribution&lt;/span&gt;" style="text;whiteSpace=wrap;html=1;" parent="1" vertex="1">
          <mxGeometry x="510" y="444" width="200.5" height="28" as="geometry" />
        </mxCell>
        <mxCell id="s2Wf5fJSj2AJtUu0uB9K-28" value="&lt;span style=&quot;color: rgb(0, 0, 0); font-family: Tahoma; font-size: 10px; font-style: normal; font-variant-ligatures: normal; font-variant-caps: normal; font-weight: 400; letter-spacing: normal; orphans: 2; text-align: center; text-indent: 0px; text-transform: none; widows: 2; word-spacing: 0px; -webkit-text-stroke-width: 0px; white-space: normal; background-color: rgb(251, 251, 251); text-decoration-thickness: initial; text-decoration-style: initial; text-decoration-color: initial; display: inline !important; float: none;&quot;&gt;Manual Monitoring Form Details&lt;/span&gt;" style="text;whiteSpace=wrap;html=1;" parent="1" vertex="1">
          <mxGeometry x="503" y="484" width="146.5" height="20" as="geometry" />
        </mxCell>
        <mxCell id="s2Wf5fJSj2AJtUu0uB9K-29" value="&lt;span style=&quot;color: rgb(0, 0, 0); font-family: Tahoma; font-size: 10px; font-style: normal; font-variant-ligatures: normal; font-variant-caps: normal; font-weight: 400; letter-spacing: normal; orphans: 2; text-align: center; text-indent: 0px; text-transform: none; widows: 2; word-spacing: 0px; -webkit-text-stroke-width: 0px; white-space: normal; background-color: rgb(251, 251, 251); text-decoration-thickness: initial; text-decoration-style: initial; text-decoration-color: initial; display: inline !important; float: none;&quot;&gt;Manual Monitoring Form Reception&lt;/span&gt;" style="text;whiteSpace=wrap;html=1;" parent="1" vertex="1">
          <mxGeometry x="506" y="595" width="164" height="20" as="geometry" />
        </mxCell>
        <mxCell id="s2Wf5fJSj2AJtUu0uB9K-30" value="&lt;span style=&quot;color: rgb(0, 0, 0); font-family: Tahoma; font-size: 10px; font-style: normal; font-variant-ligatures: normal; font-variant-caps: normal; font-weight: 400; letter-spacing: normal; orphans: 2; text-align: center; text-indent: 0px; text-transform: none; widows: 2; word-spacing: 0px; -webkit-text-stroke-width: 0px; white-space: normal; background-color: rgb(251, 251, 251); text-decoration-thickness: initial; text-decoration-style: initial; text-decoration-color: initial; display: inline !important; float: none;&quot;&gt;Manual Monitoring Form Details&lt;/span&gt;" style="text;whiteSpace=wrap;html=1;" parent="1" vertex="1">
          <mxGeometry x="203.5" y="747" width="146.5" height="20" as="geometry" />
        </mxCell>
        <mxCell id="s2Wf5fJSj2AJtUu0uB9K-32" value="&lt;span style=&quot;font-size: 10px;&quot;&gt;Manual Monitoring Form Report&lt;/span&gt;" style="text;html=1;align=center;verticalAlign=middle;whiteSpace=wrap;rounded=0;" parent="1" vertex="1">
          <mxGeometry x="510" y="532" width="150" height="20" as="geometry" />
        </mxCell>
        <mxCell id="s2Wf5fJSj2AJtUu0uB9K-33" value="&lt;font style=&quot;font-size: 10px;&quot;&gt;Manual Monitoring Form Report&lt;/font&gt;" style="text;html=1;align=center;verticalAlign=middle;whiteSpace=wrap;rounded=0;" parent="1" vertex="1">
          <mxGeometry x="508" y="403" width="150" height="20" as="geometry" />
        </mxCell>
        <mxCell id="s2Wf5fJSj2AJtUu0uB9K-34" value="&lt;span style=&quot;color: rgb(0, 0, 0); font-family: Tahoma; font-size: 10px; font-style: normal; font-variant-ligatures: normal; font-variant-caps: normal; font-weight: 400; letter-spacing: normal; orphans: 2; text-align: center; text-indent: 0px; text-transform: none; widows: 2; word-spacing: 0px; -webkit-text-stroke-width: 0px; white-space: normal; background-color: rgb(251, 251, 251); text-decoration-thickness: initial; text-decoration-style: initial; text-decoration-color: initial; display: inline !important; float: none;&quot;&gt;Manual Monitoring Form Reception&lt;/span&gt;" style="text;whiteSpace=wrap;html=1;" parent="1" vertex="1">
          <mxGeometry x="508" y="350" width="97" height="60" as="geometry" />
        </mxCell>
        <mxCell id="nQ_NgVRPdIrDquqWhli7-1" style="edgeStyle=orthogonalEdgeStyle;rounded=0;orthogonalLoop=1;jettySize=auto;html=1;exitX=0;exitY=0;exitDx=0;exitDy=0;exitPerimeter=0;entryX=0.809;entryY=1.003;entryDx=0;entryDy=0;entryPerimeter=0;" edge="1" parent="1" source="STUI0dnbRy2QR_3KAWYy-7" target="STUI0dnbRy2QR_3KAWYy-4">
          <mxGeometry relative="1" as="geometry">
            <Array as="points">
              <mxPoint x="458" y="720" />
            </Array>
          </mxGeometry>
        </mxCell>
        <mxCell id="nQ_NgVRPdIrDquqWhli7-2" value="&lt;font style=&quot;font-size: 10px;&quot;&gt;Cash Advance Voucher&lt;/font&gt;" style="text;html=1;align=center;verticalAlign=middle;whiteSpace=wrap;rounded=0;" vertex="1" parent="1">
          <mxGeometry x="454.25" y="700" width="121.5" height="20" as="geometry" />
        </mxCell>
        <mxCell id="nQ_NgVRPdIrDquqWhli7-3" style="edgeStyle=orthogonalEdgeStyle;rounded=0;orthogonalLoop=1;jettySize=auto;html=1;exitX=0.25;exitY=0;exitDx=0;exitDy=0;entryX=1;entryY=1;entryDx=0;entryDy=0;entryPerimeter=0;" edge="1" parent="1" source="STUI0dnbRy2QR_3KAWYy-3" target="STUI0dnbRy2QR_3KAWYy-2">
          <mxGeometry relative="1" as="geometry">
            <Array as="points">
              <mxPoint x="335" y="230" />
            </Array>
          </mxGeometry>
        </mxCell>
        <mxCell id="nQ_NgVRPdIrDquqWhli7-4" value="&lt;font style=&quot;font-size: 10px;&quot;&gt;Cash Advance Voucher&lt;/font&gt;" style="text;html=1;align=center;verticalAlign=middle;whiteSpace=wrap;rounded=0;" vertex="1" parent="1">
          <mxGeometry x="185" y="230" width="121.5" height="20" as="geometry" />
        </mxCell>
      </root>
    </mxGraphModel>
  </diagram>
</mxfile>
